<?xml version="1.0" encoding="UTF-8"?>
<svg id="Layer_2" data-name="Layer 2" xmlns="http://www.w3.org/2000/svg" viewBox="0 0 975.33 714.29">
  <defs>
    <style>
      .cls-1 {
        fill: #f05323;
      }
    </style>
  </defs>
  <g id="Layer_1-2" data-name="Layer 1">
    <g>
      <circle class="cls-1" cx="618.19" cy="357.14" r="357.14"/>
      <path d="m795.38,375.03c-1.25,1.46-2.03,2.47-2.91,3.39-17.75,18.49-35.51,36.98-53.27,55.47-16.14,16.81-32.3,33.61-48.43,50.43-12.67,13.22-25.3,26.48-37.98,39.69-3.75,3.91-6,8.38-5.54,13.91.64,7.73,4.81,13.09,11.81,15.94,6.56,2.67,12.75,1.45,18.08-3.35,1.48-1.33,2.85-2.8,4.23-4.24,25.96-27,51.91-54.01,77.86-81.03,32.29-33.62,64.56-67.24,96.83-100.88,2.18-2.27,4.25-4.64,6.69-7.33-2.42-2.67-4.67-5.28-7.05-7.76-22.62-23.52-45.27-47-67.89-70.52-24.11-25.08-48.19-50.2-72.28-75.3-12.22-12.73-24.43-25.47-36.62-38.23-3.61-3.77-7.87-6.04-13.18-6.16-7.38-.17-12.93,3.01-16.3,9.47-3.57,6.83-2.81,13.5,1.78,19.7.59.8,1.32,1.49,2.02,2.21,9.93,10.31,19.89,20.6,29.79,30.94,18.65,19.47,37.25,39,55.91,58.46,14.06,14.66,28.2,29.24,42.27,43.88,4.6,4.78,9.12,9.65,14.1,14.94-1.74.14-2.95.31-4.16.31-50.44.01-100.89,0-151.33.01-59.93,0-119.87.03-179.8.03-59.93,0-119.87-.03-179.8-.03-59.93,0-119.87.02-179.8.03-26.97,0-53.94,0-80.91.01-1.66,0-3.35-.04-4.98.22-9.3,1.49-14.99,9-14.51,19.05.44,9.16,7.02,15.98,16.13,16.61,2.16.15,4.33.11,6.49.11,46.61,0,93.23-.02,139.84-.02,46.61,0,93.23.02,139.84.02,46.61,0,93.23-.02,139.84-.02,46.61,0,93.23.02,139.84.02,46.62,0,93.23-.02,139.85-.02,23.14,0,46.28.02,69.42.03,1.15,0,2.3,0,4.08,0Z"/>
    </g>
  </g>
</svg>